<?xml version="1.0" standalone="no"?>
<!DOCTYPE svg PUBLIC "-//W3C//DTD SVG 20010904//EN"
 "http://www.w3.org/TR/2001/REC-SVG-20010904/DTD/svg10.dtd">
<svg version="1.0" xmlns="http://www.w3.org/2000/svg"
 width="502.000000pt" height="502.000000pt" viewBox="0 0 502.000000 502.000000"
 preserveAspectRatio="xMidYMid meet">
<metadata>
Created by potrace 1.14, written by Peter Selinger 2001-2017
</metadata>
<g transform="translate(0.000000,502.000000) scale(0.100000,-0.100000)"
fill="#000000" stroke="none">
<path d="M3616 4893 c-16 -8 -34 -16 -40 -17 -6 -1 -47 -14 -91 -28 -69 -23
-263 -80 -495 -148 -55 -16 -133 -38 -162 -46 -5 -1 -9 -2 -10 -4 -2 -1 -10
-3 -18 -5 -8 -2 -55 -16 -105 -30 -49 -14 -99 -28 -110 -31 -11 -2 -128 -36
-260 -74 -132 -39 -249 -73 -261 -75 -12 -3 -40 -11 -63 -20 -23 -8 -43 -14
-46 -15 -3 0 -6 0 -7 -1 -2 0 -10 -2 -18 -4 -8 -1 -37 -10 -65 -18 -27 -9
-104 -33 -170 -53 -133 -41 -195 -78 -239 -144 -41 -62 -52 -92 -64 -175 -24
-164 68 -320 223 -377 63 -24 225 -77 250 -82 6 -2 30 -9 55 -16 25 -7 50 -14
55 -16 6 -1 43 -11 83 -22 40 -12 80 -19 90 -17 9 2 96 27 192 55 96 28 182
52 190 54 8 2 42 12 75 22 33 10 65 19 70 20 6 1 37 10 70 20 33 10 65 19 71
20 6 1 38 10 70 20 33 9 64 18 69 20 36 8 234 67 305 90 47 15 91 29 97 30 40
7 188 92 215 123 32 36 61 94 74 146 9 35 13 790 5 804 -4 5 -18 3 -35 -6z"/>
<path d="M1385 3321 c-8 -14 -3 -679 7 -763 4 -38 16 -88 27 -111 29 -59 90
-121 147 -150 50 -25 258 -97 280 -97 7 0 25 -5 41 -12 32 -13 36 -14 83 -27
19 -5 139 -39 265 -75 127 -37 237 -69 245 -71 8 -1 71 -19 140 -40 69 -20
132 -38 140 -40 8 -1 96 -26 195 -55 99 -29 187 -53 195 -55 8 -2 34 -10 58
-19 23 -8 42 -13 42 -11 0 2 16 -3 35 -11 19 -8 36 -14 37 -13 5 3 154 -43
223 -68 124 -45 115 -49 116 53 2 176 -8 605 -15 695 -6 79 -30 133 -79 182
-27 26 -52 47 -56 47 -5 0 -30 10 -57 22 -27 12 -51 23 -54 23 -3 1 -12 4 -20
8 -27 11 -240 79 -258 82 -9 2 -18 4 -19 5 -2 2 -6 3 -10 4 -5 2 -28 9 -53 16
-25 7 -48 14 -52 16 -5 1 -9 2 -10 4 -2 1 -10 3 -18 5 -65 16 -244 66 -260 73
-8 3 -19 7 -25 8 -5 1 -12 3 -15 4 -3 1 -12 3 -20 5 -8 2 -143 40 -300 85
-157 45 -289 83 -295 84 -5 1 -26 7 -45 13 -38 13 -175 53 -285 85 -38 11 -87
26 -107 34 -21 8 -38 11 -38 8 0 -4 -6 -2 -12 4 -7 5 -27 13 -45 17 -18 3 -50
15 -72 26 -46 22 -48 22 -56 10z"/>
<path d="M2865 1509 c-16 -5 -61 -18 -100 -29 -38 -11 -101 -29 -140 -40 -38
-12 -77 -23 -85 -25 -8 -2 -49 -13 -90 -25 -41 -12 -115 -32 -165 -46 -49 -13
-110 -31 -135 -38 -102 -31 -160 -48 -177 -51 -10 -2 -18 -4 -18 -5 0 -1 -7
-3 -16 -5 -8 -1 -53 -14 -100 -28 -103 -31 -210 -59 -226 -60 -7 0 -13 -4 -13
-9 0 -4 -7 -8 -16 -8 -18 0 -141 -34 -184 -51 l-25 -9 2 -403 c1 -385 6 -553
15 -562 2 -3 62 11 134 31 71 19 136 36 144 39 70 17 837 236 934 266 37 12
73 22 80 23 6 2 31 9 56 16 25 7 50 15 55 16 6 1 73 21 150 44 77 23 145 43
150 44 6 2 17 6 25 9 12 5 120 37 140 42 3 0 32 9 65 20 33 10 67 20 76 21 36
7 106 43 135 70 81 75 118 162 117 279 0 69 -4 89 -32 147 -36 76 -79 124
-142 161 -45 26 -287 107 -320 107 -10 0 -21 5 -24 11 -4 5 -12 8 -18 6 -7 -2
-23 0 -37 5 -35 14 -163 48 -175 47 -5 0 -23 -5 -40 -10z"/>
</g>
</svg>
