<svg width="501" height="502" xmlns="http://www.w3.org/2000/svg" xmlns:xlink="http://www.w3.org/1999/xlink" xml:space="preserve" overflow="hidden"><defs><clipPath id="clip0"><rect x="756" y="42" width="501" height="502"/></clipPath><clipPath id="clip1"><rect x="757" y="43" width="500" height="500"/></clipPath><clipPath id="clip2"><rect x="757" y="43" width="500" height="500"/></clipPath><clipPath id="clip3"><rect x="757" y="43" width="500" height="500"/></clipPath></defs><g clip-path="url(#clip0)" transform="translate(-756 -42)"><g clip-path="url(#clip1)"><g clip-path="url(#clip2)"><g clip-path="url(#clip3)"><path d="M969.382 413.679 892.86 435.461 892.859 484.1C892.859 526.93 893.084 532.74 894.754 532.74 899.516 532.74 1098.41 475.308 1103.09 472.583 1125.77 459.354 1126.64 425.285 1104.66 410.595 1099.39 407.074 1088.28 403.435 1055.82 394.597L1045.9 391.897 969.382 413.679" fill="#FFFFFF" fill-rule="evenodd" fill-opacity="1"/><path d="M893.078 251.126C893.527 296.61 893.691 297.54 903.229 308.098 910.401 316.035 913.773 317.177 1012.44 345.11 1064.24 359.773 1109.62 373.136 1113.28 374.804 1116.94 376.471 1120.15 377.837 1120.41 377.837 1122.02 377.837 1120.72 299.678 1119 293.914 1113.45 275.211 1114.18 275.522 1000.67 243.322 948.53 228.532 903.239 215.105 900.025 213.485 896.81 211.866 893.842 210.541 893.428 210.541 893.016 210.541 892.857 228.805 893.078 251.126" fill="#FFFFFF" fill-rule="evenodd" fill-opacity="1"/><path d="M1112.82 56.2885C1109.41 57.8953 1064.24 71.2148 1012.44 85.8872 960.644 100.56 915.883 113.779 912.973 115.265 888.206 127.917 886.98 165.031 910.869 179.031 913.816 180.758 927.9 185.503 942.168 189.575L968.11 196.977 1033.63 178.274C1126.01 151.907 1120.88 156.984 1120.88 91.9703 1120.88 70.6247 1120.46 53.2065 1119.95 53.262 1119.43 53.3191 1116.23 54.6801 1112.82 56.2885" fill="#FFFFFF" fill-rule="evenodd" fill-opacity="1"/></g></g></g></g></svg>