<?xml version="1.0" encoding="utf-8"?>
<svg viewBox="0 0 500 500" width="500" height="500" xmlns="http://www.w3.org/2000/svg">
  <g id="svgg" transform="matrix(1.5862069129943848, 0, 0, 1.5862069129943848, 73.89664459228516, -144.74417114257812)" style="">
    <path id="path0" d="M 87.306 324.94 L 39.064 338.672 L 39.063 369.336 C 39.063 396.337 39.205 400 40.258 400 C 43.26 400 168.652 363.793 171.597 362.075 C 185.9 353.735 186.446 332.257 172.589 322.996 C 169.268 320.776 162.263 318.482 141.797 312.91 L 135.547 311.208 L 87.306 324.94" stroke="none" fill="#000000" fill-rule="evenodd"/>
    <path id="path0" d="M 39.201 222.461 C 39.484 251.136 39.588 251.722 45.601 258.378 C 50.122 263.382 52.248 264.102 114.453 281.712 C 147.109 290.956 175.716 299.38 178.024 300.432 C 180.332 301.483 182.353 302.344 182.516 302.344 C 183.535 302.344 182.712 253.07 181.633 249.436 C 178.131 237.645 178.59 237.841 107.031 217.541 C 74.16 208.217 45.607 199.752 43.581 198.731 C 41.554 197.71 39.683 196.875 39.422 196.875 C 39.162 196.875 39.062 208.389 39.201 222.461" stroke="none" fill="#000000" fill-rule="evenodd"/>
    <path id="path0" d="M 177.734 99.629 C 175.586 100.642 147.109 109.039 114.453 118.289 C 81.797 127.539 53.578 135.873 51.744 136.81 C 36.13 144.786 35.357 168.184 50.417 177.01 C 52.275 178.099 61.154 181.09 70.149 183.657 L 86.504 188.324 L 127.812 176.533 C 186.048 159.91 182.813 163.111 182.813 122.124 C 182.813 108.667 182.549 97.686 182.227 97.721 C 181.904 97.757 179.883 98.615 177.734 99.629" stroke="none" fill="#000000" fill-rule="evenodd"/>
  </g>
</svg>